# xmcd CD database file
#
# Track frame offsets:
#	150
#	12542
#	26267
#	36712
#	51415
#	65422
#	78730
#	88935
#	102290
#	117230
#	131462
#	148252
#	159592
#	174320
#	186880
#	200395
#	213922
#	229867
#
# Disc length: 3250 seconds
#
# Revision: 1
# Processed by: cddbd v1.4PL0 Copyright (c) Steve Scherf et al.
# Submitted via: CDex 1.50beta10
#
DISCID=060cb012
DTITLE=Louis Armstrong - The Great Louis Armstrong - CD3
DYEAR=1900
DGENRE=Jazz
TTITLE0=When The Saints Go Marching In
TTITLE1=Red Sails In The Sunset
TTITLE2=In the Shade Of the Old Apple Tree
TTITLE3=Lazy Bones
TTITLE4=What Is This Thing Called Love
TTITLE5=Aint Misbehaving
TTITLE6=As Long As You Live
TTITLE7=Strutting With Some Barbeque
TTITLE8=She's the Daughter of a Planter from Havana
TTITLE9=Red Cap
TTITLE10=Wrap Your Troubles In Dreams
TTITLE11=Love Walked In
TTITLE12=Confessing
TTITLE13=I Never Knew
TTITLE14=I Wonder
TTITLE15=You Rascal You
TTITLE16=Sugar
TTITLE17=Do You Know What it Means to Miss New Orleans
EXTD=
EXTT0=
EXTT1=
EXTT2=
EXTT3=
EXTT4=
EXTT5=
EXTT6=
EXTT7=
EXTT8=
EXTT9=
EXTT10=
EXTT11=
EXTT12=
EXTT13=
EXTT14=
EXTT15=
EXTT16=
EXTT17=
PLAYORDER=
